G04 #@! TF.GenerationSoftware,KiCad,Pcbnew,5.1.5+dfsg1-2build2*
G04 #@! TF.CreationDate,2021-12-24T19:22:18+01:00*
G04 #@! TF.ProjectId,spinnybee-pcb,7370696e-6e79-4626-9565-2d7063622e6b,rev?*
G04 #@! TF.SameCoordinates,Original*
G04 #@! TF.FileFunction,Legend,Bot*
G04 #@! TF.FilePolarity,Positive*
%FSLAX46Y46*%
G04 Gerber Fmt 4.6, Leading zero omitted, Abs format (unit mm)*
G04 Created by KiCad (PCBNEW 5.1.5+dfsg1-2build2) date 2021-12-24 19:22:18*
%MOMM*%
%LPD*%
G04 APERTURE LIST*
%ADD10C,0.300000*%
%ADD11C,0.120000*%
%ADD12C,0.150000*%
G04 APERTURE END LIST*
D10*
X103347629Y-45157106D02*
X103145599Y-45056091D01*
X103044583Y-45056091D01*
X102893061Y-45106599D01*
X102741538Y-45258122D01*
X102691030Y-45409644D01*
X102691030Y-45510660D01*
X102741538Y-45662183D01*
X103145599Y-46066244D01*
X104206259Y-45005583D01*
X103852705Y-44652030D01*
X103701183Y-44601522D01*
X103600167Y-44601522D01*
X103448644Y-44652030D01*
X103347629Y-44753045D01*
X103297122Y-44904568D01*
X103297122Y-45005583D01*
X103347629Y-45157106D01*
X103701183Y-45510660D01*
X102438492Y-44753045D02*
X101933416Y-44247969D01*
X102236461Y-45157106D02*
X102943568Y-43742893D01*
X101529355Y-44449999D01*
X102387984Y-43187309D02*
X101781893Y-42581217D01*
X101024278Y-43944923D02*
X102084938Y-42884263D01*
X102741538Y-40277675D02*
X103246614Y-40782751D01*
X104307274Y-39722091D01*
X102943569Y-39368538D02*
X102590015Y-39014984D01*
X101882908Y-39419045D02*
X102387985Y-39924122D01*
X103448645Y-38863461D01*
X102943569Y-38358385D01*
X101428340Y-38964477D02*
X102489000Y-37903816D01*
X102236462Y-37651278D01*
X102034431Y-37550263D01*
X101832401Y-37550263D01*
X101680878Y-37600771D01*
X101428340Y-37752294D01*
X101276817Y-37903816D01*
X101125294Y-38156355D01*
X101074786Y-38307877D01*
X101074786Y-38509908D01*
X101175802Y-38711938D01*
X101428340Y-38964477D01*
X104054737Y-42187791D02*
X104206260Y-42238299D01*
X104357782Y-42389822D01*
X104458798Y-42591852D01*
X104458798Y-42793883D01*
X104408290Y-42945406D01*
X104256767Y-43197944D01*
X104105244Y-43349467D01*
X103852706Y-43500990D01*
X103701183Y-43551497D01*
X103499153Y-43551497D01*
X103297122Y-43450482D01*
X103196107Y-43349467D01*
X103095092Y-43147436D01*
X103095092Y-43046421D01*
X103448645Y-42692868D01*
X103650676Y-42894898D01*
X102539508Y-42692868D02*
X103600168Y-41632208D01*
X101933416Y-42086776D01*
X102994076Y-41026116D01*
X101428340Y-41581700D02*
X102489000Y-40521040D01*
X102236462Y-40268502D01*
X102034432Y-40167486D01*
X101832401Y-40167486D01*
X101680878Y-40217994D01*
X101428340Y-40369517D01*
X101276817Y-40521040D01*
X101125294Y-40773578D01*
X101074787Y-40925101D01*
X101074787Y-41127131D01*
X101175802Y-41329162D01*
X101428340Y-41581700D01*
X104054737Y-34567791D02*
X104206260Y-34618299D01*
X104357782Y-34769822D01*
X104458798Y-34971852D01*
X104458798Y-35173883D01*
X104408290Y-35325406D01*
X104256767Y-35577944D01*
X104105244Y-35729467D01*
X103852706Y-35880990D01*
X103701183Y-35931497D01*
X103499153Y-35931497D01*
X103297122Y-35830482D01*
X103196107Y-35729467D01*
X103095092Y-35527436D01*
X103095092Y-35426421D01*
X103448645Y-35072868D01*
X103650676Y-35274898D01*
X102539508Y-35072868D02*
X103600168Y-34012208D01*
X101933416Y-34466776D01*
X102994076Y-33406116D01*
X101428340Y-33961700D02*
X102489000Y-32901040D01*
X102236462Y-32648502D01*
X102034432Y-32547486D01*
X101832401Y-32547486D01*
X101680878Y-32597994D01*
X101428340Y-32749517D01*
X101276817Y-32901040D01*
X101125294Y-33153578D01*
X101074787Y-33305101D01*
X101074787Y-33507131D01*
X101175802Y-33709162D01*
X101428340Y-33961700D01*
X104105244Y-31822837D02*
X102691030Y-32529944D01*
X103398137Y-31115730D01*
X101983923Y-31822837D02*
X103044583Y-30762177D01*
X101478847Y-31317761D02*
X102539507Y-30257101D01*
X100872755Y-30711669D01*
X101933416Y-29651009D01*
X91360429Y-40532857D02*
X91146144Y-40604285D01*
X91074715Y-40675714D01*
X91003287Y-40818571D01*
X91003287Y-41032857D01*
X91074715Y-41175714D01*
X91146144Y-41247142D01*
X91289001Y-41318571D01*
X91860429Y-41318571D01*
X91860429Y-39818571D01*
X91360429Y-39818571D01*
X91217572Y-39890000D01*
X91146144Y-39961428D01*
X91074715Y-40104285D01*
X91074715Y-40247142D01*
X91146144Y-40390000D01*
X91217572Y-40461428D01*
X91360429Y-40532857D01*
X91860429Y-40532857D01*
X90431858Y-40890000D02*
X89717572Y-40890000D01*
X90574715Y-41318571D02*
X90074715Y-39818571D01*
X89574715Y-41318571D01*
X89289001Y-39818571D02*
X88431858Y-39818571D01*
X88860429Y-41318571D02*
X88860429Y-39818571D01*
X91074715Y-37350000D02*
X91217572Y-37278571D01*
X91431858Y-37278571D01*
X91646143Y-37350000D01*
X91789000Y-37492857D01*
X91860429Y-37635714D01*
X91931858Y-37921428D01*
X91931858Y-38135714D01*
X91860429Y-38421428D01*
X91789000Y-38564285D01*
X91646143Y-38707142D01*
X91431858Y-38778571D01*
X91289000Y-38778571D01*
X91074715Y-38707142D01*
X91003286Y-38635714D01*
X91003286Y-38135714D01*
X91289000Y-38135714D01*
X90360429Y-38778571D02*
X90360429Y-37278571D01*
X89503286Y-38778571D01*
X89503286Y-37278571D01*
X88789000Y-38778571D02*
X88789000Y-37278571D01*
X88431858Y-37278571D01*
X88217572Y-37350000D01*
X88074715Y-37492857D01*
X88003286Y-37635714D01*
X87931858Y-37921428D01*
X87931858Y-38135714D01*
X88003286Y-38421428D01*
X88074715Y-38564285D01*
X88217572Y-38707142D01*
X88431858Y-38778571D01*
X88789000Y-38778571D01*
X91074715Y-34810000D02*
X91217572Y-34738571D01*
X91431858Y-34738571D01*
X91646143Y-34810000D01*
X91789000Y-34952857D01*
X91860429Y-35095714D01*
X91931858Y-35381428D01*
X91931858Y-35595714D01*
X91860429Y-35881428D01*
X91789000Y-36024285D01*
X91646143Y-36167142D01*
X91431858Y-36238571D01*
X91289000Y-36238571D01*
X91074715Y-36167142D01*
X91003286Y-36095714D01*
X91003286Y-35595714D01*
X91289000Y-35595714D01*
X90360429Y-36238571D02*
X90360429Y-34738571D01*
X89503286Y-36238571D01*
X89503286Y-34738571D01*
X88789000Y-36238571D02*
X88789000Y-34738571D01*
X88431858Y-34738571D01*
X88217572Y-34810000D01*
X88074715Y-34952857D01*
X88003286Y-35095714D01*
X87931858Y-35381428D01*
X87931858Y-35595714D01*
X88003286Y-35881428D01*
X88074715Y-36024285D01*
X88217572Y-36167142D01*
X88431858Y-36238571D01*
X88789000Y-36238571D01*
X92074715Y-32198571D02*
X91574715Y-33698571D01*
X91074715Y-32198571D01*
X90574715Y-33698571D02*
X90574715Y-32198571D01*
X89860429Y-33698571D02*
X89860429Y-32198571D01*
X89003286Y-33698571D01*
X89003286Y-32198571D01*
X91860429Y-30372857D02*
X91360429Y-30372857D01*
X91146144Y-31158571D02*
X91860429Y-31158571D01*
X91860429Y-29658571D01*
X91146144Y-29658571D01*
X90503287Y-31158571D02*
X90503287Y-29658571D01*
X89646144Y-31158571D01*
X89646144Y-29658571D01*
X101492857Y-47041715D02*
X101564285Y-47256000D01*
X101635714Y-47327429D01*
X101778571Y-47398858D01*
X101992857Y-47398858D01*
X102135714Y-47327429D01*
X102207142Y-47256000D01*
X102278571Y-47113143D01*
X102278571Y-46541715D01*
X100778571Y-46541715D01*
X100778571Y-47041715D01*
X100850000Y-47184572D01*
X100921428Y-47256000D01*
X101064285Y-47327429D01*
X101207142Y-47327429D01*
X101350000Y-47256000D01*
X101421428Y-47184572D01*
X101492857Y-47041715D01*
X101492857Y-46541715D01*
X101850000Y-47970286D02*
X101850000Y-48684572D01*
X102278571Y-47827429D02*
X100778571Y-48327429D01*
X102278571Y-48827429D01*
X100778571Y-49113143D02*
X100778571Y-49970286D01*
X102278571Y-49541715D02*
X100778571Y-49541715D01*
X98310000Y-46684571D02*
X98238571Y-46541714D01*
X98238571Y-46327429D01*
X98310000Y-46113143D01*
X98452857Y-45970286D01*
X98595714Y-45898857D01*
X98881428Y-45827429D01*
X99095714Y-45827429D01*
X99381428Y-45898857D01*
X99524285Y-45970286D01*
X99667142Y-46113143D01*
X99738571Y-46327429D01*
X99738571Y-46470286D01*
X99667142Y-46684571D01*
X99595714Y-46756000D01*
X99095714Y-46756000D01*
X99095714Y-46470286D01*
X99738571Y-47398857D02*
X98238571Y-47398857D01*
X99738571Y-48256000D01*
X98238571Y-48256000D01*
X99738571Y-48970286D02*
X98238571Y-48970286D01*
X98238571Y-49327429D01*
X98310000Y-49541714D01*
X98452857Y-49684571D01*
X98595714Y-49756000D01*
X98881428Y-49827429D01*
X99095714Y-49827429D01*
X99381428Y-49756000D01*
X99524285Y-49684571D01*
X99667142Y-49541714D01*
X99738571Y-49327429D01*
X99738571Y-48970286D01*
X92404285Y-49546714D02*
X93118571Y-49546714D01*
X93118571Y-48046714D01*
X91904285Y-48761000D02*
X91404285Y-48761000D01*
X91190000Y-49546714D02*
X91904285Y-49546714D01*
X91904285Y-48046714D01*
X91190000Y-48046714D01*
X90547142Y-49546714D02*
X90547142Y-48046714D01*
X90190000Y-48046714D01*
X89975714Y-48118143D01*
X89832857Y-48261000D01*
X89761428Y-48403857D01*
X89690000Y-48689571D01*
X89690000Y-48903857D01*
X89761428Y-49189571D01*
X89832857Y-49332428D01*
X89975714Y-49475285D01*
X90190000Y-49546714D01*
X90547142Y-49546714D01*
X76807142Y-46113143D02*
X76878571Y-46327429D01*
X76878571Y-46684572D01*
X76807142Y-46827429D01*
X76735714Y-46898858D01*
X76592857Y-46970286D01*
X76450000Y-46970286D01*
X76307142Y-46898858D01*
X76235714Y-46827429D01*
X76164285Y-46684572D01*
X76092857Y-46398858D01*
X76021428Y-46256000D01*
X75950000Y-46184572D01*
X75807142Y-46113143D01*
X75664285Y-46113143D01*
X75521428Y-46184572D01*
X75450000Y-46256000D01*
X75378571Y-46398858D01*
X75378571Y-46756000D01*
X75450000Y-46970286D01*
X76735714Y-48470286D02*
X76807142Y-48398858D01*
X76878571Y-48184572D01*
X76878571Y-48041715D01*
X76807142Y-47827429D01*
X76664285Y-47684572D01*
X76521428Y-47613143D01*
X76235714Y-47541715D01*
X76021428Y-47541715D01*
X75735714Y-47613143D01*
X75592857Y-47684572D01*
X75450000Y-47827429D01*
X75378571Y-48041715D01*
X75378571Y-48184572D01*
X75450000Y-48398858D01*
X75521428Y-48470286D01*
X76878571Y-49827429D02*
X76878571Y-49113143D01*
X75378571Y-49113143D01*
X74267142Y-46184571D02*
X74338571Y-46398857D01*
X74338571Y-46756000D01*
X74267142Y-46898857D01*
X74195714Y-46970285D01*
X74052857Y-47041714D01*
X73910000Y-47041714D01*
X73767142Y-46970285D01*
X73695714Y-46898857D01*
X73624285Y-46756000D01*
X73552857Y-46470285D01*
X73481428Y-46327428D01*
X73410000Y-46256000D01*
X73267142Y-46184571D01*
X73124285Y-46184571D01*
X72981428Y-46256000D01*
X72910000Y-46327428D01*
X72838571Y-46470285D01*
X72838571Y-46827428D01*
X72910000Y-47041714D01*
X74338571Y-47684571D02*
X72838571Y-47684571D01*
X72838571Y-48041714D01*
X72910000Y-48256000D01*
X73052857Y-48398857D01*
X73195714Y-48470285D01*
X73481428Y-48541714D01*
X73695714Y-48541714D01*
X73981428Y-48470285D01*
X74124285Y-48398857D01*
X74267142Y-48256000D01*
X74338571Y-48041714D01*
X74338571Y-47684571D01*
X73910000Y-49113142D02*
X73910000Y-49827428D01*
X74338571Y-48970285D02*
X72838571Y-49470285D01*
X74338571Y-49970285D01*
X69115714Y-70509000D02*
X69187142Y-70437571D01*
X69258571Y-70223285D01*
X69258571Y-70080428D01*
X69187142Y-69866142D01*
X69044285Y-69723285D01*
X68901428Y-69651857D01*
X68615714Y-69580428D01*
X68401428Y-69580428D01*
X68115714Y-69651857D01*
X67972857Y-69723285D01*
X67830000Y-69866142D01*
X67758571Y-70080428D01*
X67758571Y-70223285D01*
X67830000Y-70437571D01*
X67901428Y-70509000D01*
X69187142Y-71080428D02*
X69258571Y-71294714D01*
X69258571Y-71651857D01*
X69187142Y-71794714D01*
X69115714Y-71866142D01*
X68972857Y-71937571D01*
X68830000Y-71937571D01*
X68687142Y-71866142D01*
X68615714Y-71794714D01*
X68544285Y-71651857D01*
X68472857Y-71366142D01*
X68401428Y-71223285D01*
X68330000Y-71151857D01*
X68187142Y-71080428D01*
X68044285Y-71080428D01*
X67901428Y-71151857D01*
X67830000Y-71223285D01*
X67758571Y-71366142D01*
X67758571Y-71723285D01*
X67830000Y-71937571D01*
X74338571Y-69651857D02*
X72838571Y-69651857D01*
X73910000Y-70151857D01*
X72838571Y-70651857D01*
X74338571Y-70651857D01*
X72838571Y-71651857D02*
X72838571Y-71937571D01*
X72910000Y-72080428D01*
X73052857Y-72223285D01*
X73338571Y-72294714D01*
X73838571Y-72294714D01*
X74124285Y-72223285D01*
X74267142Y-72080428D01*
X74338571Y-71937571D01*
X74338571Y-71651857D01*
X74267142Y-71509000D01*
X74124285Y-71366142D01*
X73838571Y-71294714D01*
X73338571Y-71294714D01*
X73052857Y-71366142D01*
X72910000Y-71509000D01*
X72838571Y-71651857D01*
X74267142Y-72866142D02*
X74338571Y-73080428D01*
X74338571Y-73437571D01*
X74267142Y-73580428D01*
X74195714Y-73651857D01*
X74052857Y-73723285D01*
X73910000Y-73723285D01*
X73767142Y-73651857D01*
X73695714Y-73580428D01*
X73624285Y-73437571D01*
X73552857Y-73151857D01*
X73481428Y-73009000D01*
X73410000Y-72937571D01*
X73267142Y-72866142D01*
X73124285Y-72866142D01*
X72981428Y-72937571D01*
X72910000Y-73009000D01*
X72838571Y-73151857D01*
X72838571Y-73509000D01*
X72910000Y-73723285D01*
X74338571Y-74366142D02*
X72838571Y-74366142D01*
X76807142Y-69580428D02*
X76878571Y-69794714D01*
X76878571Y-70151857D01*
X76807142Y-70294714D01*
X76735714Y-70366142D01*
X76592857Y-70437571D01*
X76450000Y-70437571D01*
X76307142Y-70366142D01*
X76235714Y-70294714D01*
X76164285Y-70151857D01*
X76092857Y-69866142D01*
X76021428Y-69723285D01*
X75950000Y-69651857D01*
X75807142Y-69580428D01*
X75664285Y-69580428D01*
X75521428Y-69651857D01*
X75450000Y-69723285D01*
X75378571Y-69866142D01*
X75378571Y-70223285D01*
X75450000Y-70437571D01*
X76735714Y-71937571D02*
X76807142Y-71866142D01*
X76878571Y-71651857D01*
X76878571Y-71509000D01*
X76807142Y-71294714D01*
X76664285Y-71151857D01*
X76521428Y-71080428D01*
X76235714Y-71009000D01*
X76021428Y-71009000D01*
X75735714Y-71080428D01*
X75592857Y-71151857D01*
X75450000Y-71294714D01*
X75378571Y-71509000D01*
X75378571Y-71651857D01*
X75450000Y-71866142D01*
X75521428Y-71937571D01*
X76878571Y-72580428D02*
X75378571Y-72580428D01*
X76878571Y-73437571D02*
X76021428Y-72794714D01*
X75378571Y-73437571D02*
X76235714Y-72580428D01*
D11*
X97730000Y-34350000D02*
X99060000Y-34350000D01*
X97730000Y-33020000D02*
X97730000Y-34350000D01*
X97730000Y-31750000D02*
X100390000Y-31750000D01*
X100390000Y-31750000D02*
X100390000Y-29150000D01*
X97730000Y-31750000D02*
X97730000Y-29150000D01*
X97730000Y-29150000D02*
X100390000Y-29150000D01*
X97730000Y-44510000D02*
X99060000Y-44510000D01*
X97730000Y-43180000D02*
X97730000Y-44510000D01*
X97730000Y-41910000D02*
X100390000Y-41910000D01*
X100390000Y-41910000D02*
X100390000Y-36770000D01*
X97730000Y-41910000D02*
X97730000Y-36770000D01*
X97730000Y-36770000D02*
X100390000Y-36770000D01*
X92650000Y-41970000D02*
X93980000Y-41970000D01*
X92650000Y-40640000D02*
X92650000Y-41970000D01*
X92650000Y-39370000D02*
X95310000Y-39370000D01*
X95310000Y-39370000D02*
X95310000Y-29150000D01*
X92650000Y-39370000D02*
X92650000Y-29150000D01*
X92650000Y-29150000D02*
X95310000Y-29150000D01*
X67250000Y-50740000D02*
X67250000Y-52070000D01*
X68580000Y-50740000D02*
X67250000Y-50740000D01*
X69850000Y-50740000D02*
X69850000Y-53400000D01*
X69850000Y-53400000D02*
X102930000Y-53400000D01*
X69850000Y-50740000D02*
X102930000Y-50740000D01*
X102930000Y-50740000D02*
X102930000Y-53400000D01*
X102930000Y-68640000D02*
X102930000Y-67310000D01*
X101600000Y-68640000D02*
X102930000Y-68640000D01*
X100330000Y-68640000D02*
X100330000Y-65980000D01*
X100330000Y-65980000D02*
X67250000Y-65980000D01*
X100330000Y-68640000D02*
X67250000Y-68640000D01*
X67250000Y-68640000D02*
X67250000Y-65980000D01*
D12*
X99393333Y-34802380D02*
X99393333Y-35516666D01*
X99440952Y-35659523D01*
X99536190Y-35754761D01*
X99679047Y-35802380D01*
X99774285Y-35802380D01*
X99012380Y-34802380D02*
X98345714Y-34802380D01*
X98774285Y-35802380D01*
X99393333Y-44962380D02*
X99393333Y-45676666D01*
X99440952Y-45819523D01*
X99536190Y-45914761D01*
X99679047Y-45962380D01*
X99774285Y-45962380D01*
X98488571Y-44962380D02*
X98679047Y-44962380D01*
X98774285Y-45010000D01*
X98821904Y-45057619D01*
X98917142Y-45200476D01*
X98964761Y-45390952D01*
X98964761Y-45771904D01*
X98917142Y-45867142D01*
X98869523Y-45914761D01*
X98774285Y-45962380D01*
X98583809Y-45962380D01*
X98488571Y-45914761D01*
X98440952Y-45867142D01*
X98393333Y-45771904D01*
X98393333Y-45533809D01*
X98440952Y-45438571D01*
X98488571Y-45390952D01*
X98583809Y-45343333D01*
X98774285Y-45343333D01*
X98869523Y-45390952D01*
X98917142Y-45438571D01*
X98964761Y-45533809D01*
X94313333Y-42422380D02*
X94313333Y-43136666D01*
X94360952Y-43279523D01*
X94456190Y-43374761D01*
X94599047Y-43422380D01*
X94694285Y-43422380D01*
X93360952Y-42422380D02*
X93837142Y-42422380D01*
X93884761Y-42898571D01*
X93837142Y-42850952D01*
X93741904Y-42803333D01*
X93503809Y-42803333D01*
X93408571Y-42850952D01*
X93360952Y-42898571D01*
X93313333Y-42993809D01*
X93313333Y-43231904D01*
X93360952Y-43327142D01*
X93408571Y-43374761D01*
X93503809Y-43422380D01*
X93741904Y-43422380D01*
X93837142Y-43374761D01*
X93884761Y-43327142D01*
X65702380Y-51736666D02*
X66416666Y-51736666D01*
X66559523Y-51689047D01*
X66654761Y-51593809D01*
X66702380Y-51450952D01*
X66702380Y-51355714D01*
X65797619Y-52165238D02*
X65750000Y-52212857D01*
X65702380Y-52308095D01*
X65702380Y-52546190D01*
X65750000Y-52641428D01*
X65797619Y-52689047D01*
X65892857Y-52736666D01*
X65988095Y-52736666D01*
X66130952Y-52689047D01*
X66702380Y-52117619D01*
X66702380Y-52736666D01*
X104477619Y-67643333D02*
X103763333Y-67643333D01*
X103620476Y-67690952D01*
X103525238Y-67786190D01*
X103477619Y-67929047D01*
X103477619Y-68024285D01*
X103477619Y-66643333D02*
X103477619Y-67214761D01*
X103477619Y-66929047D02*
X104477619Y-66929047D01*
X104334761Y-67024285D01*
X104239523Y-67119523D01*
X104191904Y-67214761D01*
M02*
