M48
; DRILL file {KiCad 5.1.5+dfsg1-2build2} date Fr 24 Dez 2021 19:19:58 CET
; FORMAT={-:-/ absolute / inch / decimal}
; #@! TF.CreationDate,2021-12-24T19:19:58+01:00
; #@! TF.GenerationSoftware,Kicad,Pcbnew,5.1.5+dfsg1-2build2
; #@! TF.FileFunction,Plated,1,2,PTH
FMAT,2
INCH
T1C0.0394
%
G90
G05
T1
X3.9Y-1.5
X3.9Y-1.6
X3.9Y-1.7
X2.7Y-2.05
X2.8Y-2.05
X2.9Y-2.05
X3.0Y-2.05
X3.1Y-2.05
X3.2Y-2.05
X3.3Y-2.05
X3.4Y-2.05
X3.5Y-2.05
X3.6Y-2.05
X3.7Y-2.05
X3.8Y-2.05
X3.9Y-2.05
X4.0Y-2.05
X3.9Y-1.2
X3.9Y-1.3
X3.7Y-1.2
X3.7Y-1.3
X3.7Y-1.4
X3.7Y-1.5
X3.7Y-1.6
X3.1Y-1.8
X3.2Y-1.8
X3.3Y-1.8
X3.4Y-1.8
X3.5Y-1.8
X3.6Y-1.8
X2.7Y-2.65
X2.8Y-2.65
X2.9Y-2.65
X3.0Y-2.65
X3.1Y-2.65
X3.2Y-2.65
X3.3Y-2.65
X3.4Y-2.65
X3.5Y-2.65
X3.6Y-2.65
X3.7Y-2.65
X3.8Y-2.65
X3.9Y-2.65
X4.0Y-2.65
X3.1Y-2.3
X3.2Y-2.3
X3.3Y-2.3
X3.4Y-2.3
X3.5Y-2.3
X3.6Y-2.3
T0
M30
